<svg width="512" height="512" viewBox="0 0 512 512" fill="none" xmlns="http://www.w3.org/2000/svg">
<g clip-path="url(#clip0_233:459)">
<path d="M270.206 68.8118C259.866 52.5749 248.664 62.0464 244.356 68.8118L8.00978 472.89L7 474.735H61.5569L179.73 271.773C190.07 257.012 203.734 261.933 209.273 266.238C221.09 273.618 216.659 288.994 212.966 295.759L109.565 474.735H153.88L244.356 314.211C253.219 297.974 268.975 301.295 275.745 304.985C290.517 315.318 285.593 330.201 281.285 336.352L200.041 474.735H240.663C253.957 474.735 258.512 469.814 259.127 467.354L373.607 273.618C382.47 266.238 377.3 249.632 373.607 242.251L270.206 68.8118Z" fill="url(#paint0_linear_233:459)"/>
<path d="M395.766 295.927C396.542 294.627 398.424 294.627 399.2 295.927L501.353 466.964C502.15 468.297 501.189 469.989 499.636 469.989H295.329C293.777 469.989 292.816 468.297 293.612 466.964L395.766 295.927Z" fill="#3B21FF"/>
</g>
<defs>
<linearGradient id="paint0_linear_233:459" x1="283.131" y1="90.9529" x2="141.138" y2="482.182" gradientUnits="userSpaceOnUse">
<stop stop-color="#00FFFF"/>
<stop offset="1" stop-color="#4200FF"/>
</linearGradient>
<clipPath id="clip0_233:459">
<rect width="512" height="512" fill="white"/>
</clipPath>
</defs>
</svg>
